<?xml version="1.0" encoding="UTF-8"?>
<svg id="Layer_1" data-name="Layer 1" xmlns="http://www.w3.org/2000/svg" viewBox="0 0 982.99 691.15">
  <defs>
    <style>
      .cls-1, .cls-2, .cls-3, .cls-4 {
        stroke-width: 0px;
      }

      .cls-2 {
        fill: #36f;
      }

      .cls-3 {
        fill: #fff;
      }

      .cls-4 {
        fill: #efefef;
      }
    </style>
  </defs>
  <path class="cls-3" d="m346.2,77.43c0-3.51.04-5.98,0-8.46-.21-10.15.72-20.49-.89-30.42C341.47,14.96,322.26.05,297.17.03,214.16-.01,131.16,0,48.15.02,20.18.03.06,20.33.06,48.42c0,204.16,0,408.33,0,612.49,0,8.67.09,17.33-.06,26-.05,2.99.88,4.3,3.97,4.16,3.16-.15,6.33,0,9.5,0,278.35,0,556.69,0,835.04,0,4.33,0,8.68-.2,13,.07,3.36.21,4.64-1.26,5.44-4.3,7.05-26.9,14.21-53.77,21.36-80.64,26.51-99.6,53.04-199.2,79.55-298.81,4.88-18.34,10.15-36.6,14.37-55.1,3.9-17.1-7.5-33.08-24.77-35.96-4.22-.7-8.56-.7-13.29-1.06,6.52-23.75,12.98-47.26,19.67-71.59h-37.4c2.71-10.11,5.21-19.47,7.95-29.7h-33.9c3.39-12.44,6.56-24.07,9.96-36.54H346.2Z"/>
  <path class="cls-1" d="m346.2,77.43h564.25c-3.4,12.47-6.57,24.1-9.96,36.54h33.9c-2.74,10.22-5.24,19.59-7.95,29.7h37.4c-6.68,24.33-13.14,47.84-19.67,71.59,4.72.35,9.06.35,13.29,1.06,17.27,2.88,28.67,18.85,24.77,35.96-4.22,18.5-9.48,36.76-14.37,55.1-26.5,99.61-53.03,199.2-79.55,298.81-7.15,26.87-14.31,53.74-21.36,80.64-.8,3.04-2.09,4.51-5.44,4.3-4.32-.27-8.66-.07-13-.07-278.35,0-556.69,0-835.04,0-3.17,0-6.34-.14-9.5,0-3.08.15-4.02-1.17-3.97-4.16.15-8.66.06-17.33.06-26,0-204.16,0-408.33,0-612.49C.06,20.33,20.18.03,48.15.02c83-.03,166.01-.03,249.01.02,25.09.01,44.31,14.93,48.14,38.52,1.61,9.93.69,20.27.89,30.42.05,2.47,0,4.95,0,8.46Zm87.83,609.7v.03c139.18,0,278.35,0,417.53,0,2.33,0,4.68-.2,7,0,3.14.28,4.49-1.23,5.18-4.08,1.86-7.71,3.77-15.42,5.82-23.08,9.4-35.2,18.87-70.38,28.29-105.57,6.45-24.09,12.86-48.19,19.27-72.3,7.92-29.76,15.84-59.53,23.75-89.3,3.5-13.17,6.95-26.36,10.44-39.54,8.96-33.79,17.93-67.57,26.9-101.35,2.47-9.3-2.22-19.81-9.45-25.93-6.98-5.91-14.62-6.23-22.83-6.23-234.85.04-469.7.03-704.54.04-30.33,0-60.67-.06-91,.03-13.07.04-23.63,8.32-26.88,20.62-9.73,36.85-19.46,73.7-29.23,110.54-9.08,34.26-18.19,68.51-27.29,102.76-6.91,26-13.84,51.99-20.75,77.98-13.17,49.54-26.21,99.11-39.64,148.59-1.74,6.43-1.33,6.84,5.42,6.84,140.68-.05,281.35-.04,422.03-.04ZM4.26,669.78c2.07-7.61,3.78-13.82,5.44-20.03,12.6-47.22,25.18-94.45,37.78-141.67,9.69-36.33,19.44-72.65,29.09-109,13.93-52.43,27.96-104.84,41.61-157.35,3.8-14.61,12.64-23.28,26.97-27.04,1.54-.4,3.46-1.91,3.96-3.33,2.42-6.9,4.48-13.93,6.55-20.95,6.83-23.11,13.45-46.29,20.47-69.34,3.87-12.7,8.86-25.06,12.39-37.84,1.6-5.77,4.16-7.12,9.66-7.1,45.83.19,91.67.06,137.5.2,4.71.01,6.83-1.35,6.33-6.23-1.16-11.42,1.04-22.8-2.17-34.49-2.27-8.25-5.86-14.72-11.64-20-8.69-7.95-19.28-11.78-31.26-11.74-28.83.11-57.67.03-86.5.03-53.34,0-106.67.15-160.01-.06-24.84-.1-41.48,14.98-45.36,34.72-.89,4.52-.8,9.27-.8,13.91-.03,194.49-.03,388.99-.02,583.48,0,10.78,0,21.57,0,33.83ZM225.95,215.68c2.63,0,4.59,0,6.55,0,206.34,0,412.68,0,619.02,0,28.17,0,56.34-.08,84.5.07,3.49.02,4.94-1.05,5.82-4.4,3.93-14.98,8.14-29.88,12.24-44.81,1.75-6.37,3.5-12.73,5.37-19.54H247.07c-6.96,22.63-13.94,45.33-21.13,68.7Zm-42.18-.3c.68-1.92,1.42-3.77,2-5.66,9.22-29.91,18.56-59.79,27.51-89.78,1.41-4.72,3.51-6.09,8.23-6.08,220.99.13,441.99.15,662.98.18,12.52,0,12.52-.03,15.82-12.16,1.89-6.96,3.8-13.91,5.84-21.39-2.32,0-3.81,0-5.29,0-233.99,0-467.99.02-701.98-.07-3.79,0-5.52,1.01-6.65,4.73-9.26,30.59-18.74,61.12-28.14,91.67-3.91,12.7-7.78,25.42-11.8,38.55h31.47Zm746.35-98.06c-11.27,0-21.92,0-32.56,0-224.68,0-449.35.01-674.03-.11-4.45,0-6.32,1.27-7.6,5.53-8.49,28.22-17.28,56.36-25.95,84.53-.8,2.6-1.44,5.26-2.29,8.4,10.39,0,20.04-.19,29.68.09,3.82.11,5.51-1.1,6.61-4.79,5.97-20.11,12.13-40.16,18.39-60.18,2.72-8.69,1.18-7.32,9.67-7.33,221.01-.03,442.02-.02,663.03-.02,1.83,0,3.71.23,5.48-.11,1.05-.2,2.51-1.14,2.78-2.05,2.34-7.76,4.44-15.59,6.77-23.96Z"/>
  <path class="cls-2" d="m434.03,687.14c-140.68,0-281.35-.01-422.03.04-6.75,0-7.16-.41-5.42-6.84,13.42-49.47,26.47-99.05,39.64-148.59,6.91-26,13.84-51.99,20.75-77.98,9.1-34.25,18.22-68.5,27.29-102.76,9.76-36.84,19.5-73.69,29.23-110.54,3.25-12.3,13.81-20.58,26.88-20.62,30.33-.09,60.67-.03,91-.03,234.85,0,469.7,0,704.54-.04,8.22,0,15.85.32,22.83,6.23,7.23,6.12,11.93,16.63,9.45,25.93-8.98,33.78-17.94,67.57-26.9,101.35-3.49,13.18-6.94,26.36-10.44,39.54-7.91,29.77-15.82,59.53-23.75,89.3-6.42,24.1-12.83,48.2-19.27,72.3-9.42,35.19-18.89,70.37-28.29,105.57-2.05,7.67-3.96,15.37-5.82,23.08-.69,2.84-2.04,4.35-5.18,4.08-2.31-.2-4.66,0-7,0-139.18,0-278.35,0-417.53,0v-.03Z"/>
  <path class="cls-2" d="m4.26,669.78c0-12.26,0-23.05,0-33.83,0-194.49-.01-388.99.02-583.48,0-4.64-.09-9.39.8-13.91C8.96,18.83,25.6,3.75,50.44,3.85c53.33.21,106.67.06,160.01.06,28.83,0,57.67.08,86.5-.03,11.98-.05,22.56,3.79,31.26,11.74,5.78,5.28,9.37,11.75,11.64,20,3.22,11.68,1.01,23.06,2.17,34.49.5,4.88-1.62,6.25-6.33,6.23-45.83-.14-91.67-.01-137.5-.2-5.49-.02-8.06,1.33-9.66,7.1-3.53,12.78-8.52,25.15-12.39,37.84-7.02,23.05-13.64,46.23-20.47,69.34-2.07,7.02-4.13,14.05-6.55,20.95-.5,1.43-2.42,2.93-3.96,3.33-14.33,3.76-23.18,12.42-26.97,27.04-13.65,52.51-27.68,104.91-41.61,157.35-9.66,36.34-19.4,72.66-29.09,109-12.6,47.22-25.18,94.45-37.78,141.67-1.66,6.22-3.37,12.42-5.44,20.03Z"/>
  <path class="cls-4" d="m225.95,215.68c7.19-23.37,14.17-46.07,21.13-68.7h712.38c-1.87,6.81-3.62,13.18-5.37,19.54-4.1,14.93-8.31,29.84-12.24,44.81-.88,3.35-2.33,4.42-5.82,4.4-28.17-.14-56.33-.07-84.5-.07-206.34,0-412.68,0-619.02,0-1.96,0-3.92,0-6.55,0Z"/>
  <path class="cls-4" d="m183.76,215.38h-31.47c4.02-13.14,7.89-25.85,11.8-38.55,9.4-30.55,18.88-61.08,28.14-91.67,1.13-3.72,2.86-4.73,6.65-4.73,233.99.09,467.99.07,701.98.07,1.48,0,2.97,0,5.29,0-2.04,7.47-3.95,14.43-5.84,21.39-3.3,12.13-3.29,12.16-15.82,12.16-220.99-.02-441.99-.05-662.98-.18-4.72,0-6.82,1.36-8.23,6.08-8.95,29.99-18.28,59.87-27.51,89.78-.58,1.9-1.32,3.74-2,5.66Z"/>
  <path class="cls-4" d="m930.11,117.32c-2.33,8.37-4.44,16.2-6.77,23.96-.27.91-1.73,1.84-2.78,2.05-1.77.34-3.65.11-5.48.11-221.01,0-442.02,0-663.03.02-8.49,0-6.95-1.36-9.67,7.33-6.26,20.02-12.42,40.07-18.39,60.18-1.1,3.69-2.79,4.9-6.61,4.79-9.64-.28-19.29-.09-29.68-.09.85-3.14,1.48-5.8,2.29-8.4,8.67-28.17,17.45-56.31,25.95-84.53,1.28-4.26,3.15-5.53,7.6-5.53,224.68.12,449.35.11,674.03.11,10.64,0,21.28,0,32.56,0Z"/>
</svg>